<svg xmlns="http://www.w3.org/2000/svg" width="144.195" height="58.715" viewBox="0 0 144.195 58.715">
  <g id="Group_1406" data-name="Group 1406" transform="translate(-773 -1990)">
    <g id="Group_1399" data-name="Group 1399" transform="translate(-115 7)">
      <g id="Group_808" data-name="Group 808" transform="translate(891.23 2025.688)">
        <path id="Path_1826" data-name="Path 1826" d="M206.616,562.285h3.107v-6.214h5.1v-2.727h-5.1v-3.71h6.415v-2.749h-9.522Z" transform="translate(-206.616 -546.595)" fill="#fff"/>
        <path id="Path_1827" data-name="Path 1827" d="M262.464,571.652a5.445,5.445,0,1,0,5.61,5.454A5.424,5.424,0,0,0,262.464,571.652Zm0,8.159a2.717,2.717,0,1,1,2.638-2.7A2.6,2.6,0,0,1,262.464,579.81Z" transform="translate(-247.288 -566.647)" fill="#fff"/>
        <path id="Path_1828" data-name="Path 1828" d="M327.838,574.133V571.92h-2.906v10.416h2.928V578.76c0-2.973,1.028-4.359,2.526-4.359a3.038,3.038,0,0,1,1.5.38l.671-2.794a3.717,3.717,0,0,0-1.654-.335A3.183,3.183,0,0,0,327.838,574.133Z" transform="translate(-302.402 -566.647)" fill="#fff"/>
        <path id="Path_1829" data-name="Path 1829" d="M397.606,554.537a3.13,3.13,0,0,0,2.123-3.2c0-2.325-1.766-3.979-4.515-3.979h-6.1v15.4h6.572c3.4,0,4.85-2.28,4.85-4.4A3.648,3.648,0,0,0,397.606,554.537Zm-5.387-4.426h2.816a1.5,1.5,0,0,1,1.587,1.677,1.523,1.523,0,0,1-1.587,1.7h-2.816Zm3.017,9.9h-3.017v-3.934h3.062a1.975,1.975,0,1,1-.045,3.934Z" transform="translate(-354.361 -546.982)" fill="#fff"/>
        <path id="Path_1830" data-name="Path 1830" d="M465.158,578.879a2.216,2.216,0,0,1-2.347,2.437c-1.006,0-1.989-.738-1.989-2.37v-5.409h-2.928v5.722c-.022,3.129,1.408,4.94,4.135,4.94a3.358,3.358,0,0,0,3.129-1.945v1.7h2.928V573.537h-2.928Z" transform="translate(-410.045 -568.173)" fill="#fff"/>
        <path id="Path_1831" data-name="Path 1831" d="M526.475,576.666l-1.721-.447c-.581-.156-1.028-.4-1.028-.894,0-.537.536-.872,1.207-.872a1.129,1.129,0,0,1,1.274,1.073H529c.022-2.459-2.213-3.4-4.113-3.4-2.414,0-4.09,1.5-4.09,3.107,0,1.1.358,2.593,3.04,3.308l1.386.335c.782.2,1.14.425,1.14.871,0,.6-.648.962-1.5.962a1.367,1.367,0,0,1-1.542-1.252h-2.749c.022,2.3,2.146,3.554,4.336,3.554,2.146,0,4.381-1.073,4.381-3.264C529.291,578.9,528.978,577.337,526.475,576.666Z" transform="translate(-460.789 -567.033)" fill="#fff"/>
        <path id="Path_1832" data-name="Path 1832" d="M575.367,545.367a1.8,1.8,0,0,0-1.855,1.743,1.857,1.857,0,0,0,3.71,0A1.786,1.786,0,0,0,575.367,545.367Z" transform="translate(-503.647 -545.367)" fill="#fff"/>
        <rect id="Rectangle_186" data-name="Rectangle 186" width="2.928" height="10.416" transform="translate(70.268 5.364)" fill="#fff"/>
        <path id="Path_1833" data-name="Path 1833" d="M609.614,572.13a3.35,3.35,0,0,0-3.129,2.011V572.4h-2.928v10.416h2.928v-5.342a2.222,2.222,0,0,1,2.347-2.459c1.006,0,1.989.737,1.989,2.391v5.409h2.928v-5.722C613.772,573.963,612.341,572.13,609.614,572.13Z" transform="translate(-527.97 -567.034)" fill="#fff"/>
        <path id="Path_1834" data-name="Path 1834" d="M671.192,572.13a5.335,5.335,0,0,0-5.543,5.476,5.259,5.259,0,0,0,5.543,5.409,5.827,5.827,0,0,0,4.649-2.034l-1.721-1.721a3.622,3.622,0,0,1-2.727,1.162,2.535,2.535,0,0,1-2.7-1.877h7.868c.022-.47.045-.827.045-1.118A5.2,5.2,0,0,0,671.192,572.13Zm-2.5,4.515a2.4,2.4,0,0,1,2.548-1.967,2.212,2.212,0,0,1,2.436,1.967Z" transform="translate(-578.239 -567.034)" fill="#fff"/>
        <path id="Path_1835" data-name="Path 1835" d="M734.581,576.666l-1.721-.447c-.581-.156-1.028-.4-1.028-.894,0-.537.536-.872,1.207-.872a1.129,1.129,0,0,1,1.274,1.073h2.794c.023-2.459-2.213-3.4-4.113-3.4-2.414,0-4.09,1.5-4.09,3.107,0,1.1.358,2.593,3.04,3.308l1.386.335c.782.2,1.14.425,1.14.871,0,.6-.648.962-1.5.962a1.367,1.367,0,0,1-1.542-1.252H728.68c.022,2.3,2.146,3.554,4.336,3.554,2.146,0,4.381-1.073,4.381-3.264C737.4,578.9,737.084,577.337,734.581,576.666Z" transform="translate(-629.267 -567.033)" fill="#fff"/>
        <path id="Path_1836" data-name="Path 1836" d="M786.227,576.666l-1.721-.447c-.581-.156-1.028-.4-1.028-.894,0-.537.536-.872,1.207-.872a1.129,1.129,0,0,1,1.274,1.073h2.794c.022-2.459-2.213-3.4-4.113-3.4-2.414,0-4.09,1.5-4.09,3.107,0,1.1.358,2.593,3.04,3.308l1.386.335c.782.2,1.14.425,1.14.871,0,.6-.648.962-1.5.962a1.367,1.367,0,0,1-1.542-1.252h-2.749c.023,2.3,2.146,3.554,4.336,3.554,2.146,0,4.381-1.073,4.381-3.264C789.043,578.9,788.73,577.337,786.227,576.666Z" transform="translate(-671.078 -567.033)" fill="#fff"/>
      </g>
      <g id="Group_810" data-name="Group 810" transform="translate(1024.424 1998.382)">
        <path id="Path_1844" data-name="Path 1844" d="M793.068,405.853a3.885,3.885,0,1,1-3.885-3.885,3.885,3.885,0,0,1,3.885,3.885" transform="translate(-785.298 -401.968)" fill="#fe2c55"/>
        <path id="Path_1845" data-name="Path 1845" d="M793.068,468.422a3.885,3.885,0,1,1-3.885-3.885,3.885,3.885,0,0,1,3.885,3.885" transform="translate(-785.298 -452.622)" fill="#25f4ee"/>
      </g>
      <text id="RockTok_" data-name="RockTok " transform="translate(888 1983)" fill="#fff" font-size="36" font-family="SegoeUI-Bold, Segoe UI" font-weight="700"><tspan x="0" y="39">RockTo</tspan></text>
    </g>
  </g>
</svg>
