<svg xmlns="http://www.w3.org/2000/svg" width="84.633" height="113.203" viewBox="0 0 84.633 113.203">
  <g id="Group_1405" data-name="Group 1405" transform="translate(-1334.25 -243.399)">
    <g id="Group_1377" data-name="Group 1377" transform="translate(-2088.441 -1126.96)">
      <path id="Path_2793" data-name="Path 2793" d="M3507.317,1538.946l0,6.045-15.369-.008.008-14.662a1.608,1.608,0,0,0-3.216,0l-.008,14.662-41.027-.023.008-14.662a1.608,1.608,0,0,0-3.215,0l-.008,14.662-15.37-.008,0-6.045a39.1,39.1,0,0,1,78.2.043Z" transform="translate(-3.208 -64.645)" fill="#ff034f"/>
      <path id="Path_2794" data-name="Path 2794" d="M3507.325,1535.805l0,7.652a1.634,1.634,0,0,1-1.609,1.607l-81.413-.044a1.593,1.593,0,0,1-1.607-1.609l0-7.652a42.315,42.315,0,0,1,84.629.047Zm-3.219,6.043,0-6.045a39.1,39.1,0,0,0-78.2-.043l0,6.045,15.37.009.008-14.662a1.608,1.608,0,1,1,3.215,0l-.008,14.662,41.028.022.008-14.662a1.608,1.608,0,0,1,3.215,0l-.008,14.662Z" transform="translate(0 -61.503)"/>
      <path id="Path_2795" data-name="Path 2795" d="M3507.116,1392.5a4.852,4.852,0,0,1-1.8,5.594l-11.9,8.675a1.738,1.738,0,0,0-.644,1.993l4.494,14.022a4.851,4.851,0,0,1-1.8,5.594,5.077,5.077,0,0,1-2.959.963,4.746,4.746,0,0,1-2.893-.966l-11.957-8.624a1.65,1.65,0,0,0-2.122,0l-11.9,8.611a4.92,4.92,0,0,1-5.852,0,4.973,4.973,0,0,1-1.861-5.6l4.573-14.016a1.738,1.738,0,0,0-.642-1.994l-11.892-8.688a4.976,4.976,0,0,1,2.963-9l14.727.008a1.777,1.777,0,0,0,1.673-1.285l4.573-13.953a5,5,0,0,1,9.518.005l4.558,13.957a1.776,1.776,0,0,0,1.671,1.287l14.727.008A4.867,4.867,0,0,1,3507.116,1392.5Zm-3.667,3.021a1.824,1.824,0,0,0-1.091-3.28l-14.726-.008a5.041,5.041,0,0,1-4.757-3.411l-4.494-14.022a1.845,1.845,0,0,0-3.473,0l-4.509,14.016a5.043,5.043,0,0,1-4.761,3.406l-14.726-.008a1.736,1.736,0,0,0-1.738,1.285,1.8,1.8,0,0,0,.643,1.994l11.892,8.688a5.005,5.005,0,0,1,1.862,5.6L3459,1423.724a1.8,1.8,0,0,0,.642,2.058,1.752,1.752,0,0,0,2.122,0l11.9-8.675a5.018,5.018,0,0,1,5.916,0l11.892,8.688a1.752,1.752,0,0,0,2.123,0,1.8,1.8,0,0,0,.644-2.057l-4.558-13.957a5,5,0,0,1,1.867-5.594Z" transform="translate(-11.579)"/>
      <path id="Path_2796" data-name="Path 2796" d="M3507.3,1396.731a1.8,1.8,0,0,1-.645,1.993l-11.9,8.675a5.005,5.005,0,0,0-1.867,5.594l4.558,13.957a1.8,1.8,0,0,1-.644,2.057,1.752,1.752,0,0,1-2.122,0l-11.892-8.688a5.018,5.018,0,0,0-5.916,0l-11.9,8.675a1.751,1.751,0,0,1-2.122,0,1.8,1.8,0,0,1-.642-2.058l4.573-13.952a5,5,0,0,0-1.862-5.6l-11.892-8.688a1.8,1.8,0,0,1-.643-1.994,1.735,1.735,0,0,1,1.737-1.285l14.726.008a5.042,5.042,0,0,0,4.761-3.406l4.509-14.016a1.844,1.844,0,0,1,3.472,0l4.494,14.021a5.041,5.041,0,0,0,4.757,3.411l14.726.008A1.8,1.8,0,0,1,3507.3,1396.731Z" transform="translate(-14.784 -3.207)" fill="#ffcf48"/>
    </g>
  </g>
</svg>
