<svg xmlns="http://www.w3.org/2000/svg" width="154.516" height="106.128" viewBox="0 0 154.516 106.128">
  <g id="Group_1403" data-name="Group 1403" transform="translate(-594 -361.855)">
    <g id="Group_1376" data-name="Group 1376" transform="translate(-4139.094 -1053.396)">
      <path id="Path_2781" data-name="Path 2781" d="M4952.2,1462.3a2.1,2.1,0,0,1-1.551,2.581l-18.767,5.326a1.473,1.473,0,0,1-.6.086,2.117,2.117,0,0,1-2.064-1.551,2.174,2.174,0,0,1,1.464-2.667l18.854-5.326A2.226,2.226,0,0,1,4952.2,1462.3Z" transform="translate(-64.661 -14.989)" fill="#fff"/>
      <path id="Path_2782" data-name="Path 2782" d="M4950.617,1519.371a2.1,2.1,0,0,1,1.549,2.583,2.376,2.376,0,0,1-2.066,1.635c-.259,0-.431-.086-.6-.086l-18.846-5.347a2.136,2.136,0,0,1-1.462-2.669,2.174,2.174,0,0,1,2.668-1.462Z" transform="translate(-64.653 -32.551)" fill="#fff"/>
      <path id="Path_2783" data-name="Path 2783" d="M4952.023,1491.345a2.109,2.109,0,1,1,0,4.217l-14.979-.008a2.109,2.109,0,1,1,0-4.217Z" transform="translate(-66.565 -25.097)" fill="#fff"/>
      <g id="Group_1375" data-name="Group 1375" transform="translate(4733.094 1415.251)">
        <path id="Path_2784" data-name="Path 2784" d="M4829.664,1437.728a38,38,0,1,1-37.979,38.023A38.038,38.038,0,0,1,4829.664,1437.728Zm30.709,33.586a5.435,5.435,0,0,0,1.983-6.024,5.376,5.376,0,0,0-5.162-3.7l-16.268-.009a1.223,1.223,0,0,1-1.119-.776l-4.983-15.5a5.345,5.345,0,0,0-5.163-3.79,5.241,5.241,0,0,0-5.081,3.784l-5.087,15.49a1.206,1.206,0,0,1-1.033.774l-16.354-.009a5.4,5.4,0,0,0-3.19,9.725l13.25,9.647a1.063,1.063,0,0,1,.344,1.2l-5,15.491a5.151,5.151,0,0,0,1.977,6.027,4.968,4.968,0,0,0,3.184,1.12,4.9,4.9,0,0,0,3.1-1.117l13.261-9.547a1.17,1.17,0,0,1,1.291,0l13.165,9.561a5.169,5.169,0,0,0,6.369,0,5.393,5.393,0,0,0,1.983-6.025l-5.07-15.5a.989.989,0,0,1,.431-1.2Z" transform="translate(-4752.421 -1422.665)" fill="#ff034f"/>
        <path id="Path_2785" data-name="Path 2785" d="M4824.374,1421.673a48.761,48.761,0,1,1-48.745,48.777A48.875,48.875,0,0,1,4824.374,1421.673Zm42.235,48.827a42.262,42.262,0,1,0-42.286,42.239A42.281,42.281,0,0,0,4866.609,1470.5Z" transform="translate(-4747.125 -1417.369)" fill="#ff034f"/>
        <path id="Path_2786" data-name="Path 2786" d="M4822.257,1415.251a53.064,53.064,0,1,1-53.05,53.078A53.118,53.118,0,0,1,4822.257,1415.251Zm48.775,53.134a48.761,48.761,0,1,0-48.83,48.691A48.875,48.875,0,0,0,4871.032,1468.385Z" transform="translate(-4745.006 -1415.251)"/>
        <path id="Path_2787" data-name="Path 2787" d="M4864.838,1467.154a5.436,5.436,0,0,1-1.983,6.024l-13.174,9.633a.991.991,0,0,0-.432,1.2l5.07,15.5a5.392,5.392,0,0,1-1.983,6.024,5.169,5.169,0,0,1-6.369,0l-13.165-9.561a1.17,1.17,0,0,0-1.291,0l-13.261,9.547a4.906,4.906,0,0,1-3.1,1.117,4.968,4.968,0,0,1-3.184-1.12,5.151,5.151,0,0,1-1.977-6.027l5-15.49a1.063,1.063,0,0,0-.343-1.2l-13.25-9.647a5.4,5.4,0,0,1,3.19-9.725l16.354.009a1.205,1.205,0,0,0,1.033-.774l5.088-15.49a5.24,5.24,0,0,1,5.08-3.784,5.345,5.345,0,0,1,5.162,3.79l4.984,15.5a1.224,1.224,0,0,0,1.119.775l16.268.009A5.376,5.376,0,0,1,4864.838,1467.154Zm-4.477,2.579a.95.95,0,0,0,.345-1.2c0-.258-.258-.775-1.032-.776l-16.268-.009a5.535,5.535,0,0,1-5.163-3.79l-4.984-15.5a1.153,1.153,0,0,0-1.118-.775,1.063,1.063,0,0,0-1.034.774l-5.086,15.491a5.348,5.348,0,0,1-5.081,3.784l-16.354-.01a1.058,1.058,0,0,0-1.033.775,1.019,1.019,0,0,0,.43,1.2l13.164,9.562a5.564,5.564,0,0,1,1.977,6.112l-5.087,15.49a1.148,1.148,0,0,0,.431,1.206.99.99,0,0,0,1.291,0l13.175-9.547a5.427,5.427,0,0,1,6.37,0l13.164,9.562a1.133,1.133,0,0,0,1.377,0,1.008,1.008,0,0,0,.345-1.2l-4.984-15.5a5.434,5.434,0,0,1,1.983-6.11Z" transform="translate(-4754.903 -1424.53)"/>
        <path id="Path_2788" data-name="Path 2788" d="M4827.547,1431.435a42.262,42.262,0,1,1-42.284,42.239A42.281,42.281,0,0,1,4827.547,1431.435Zm37.936,42.283a37.958,37.958,0,1,0-37.979,37.937A38.038,38.038,0,0,0,4865.482,1473.718Z" transform="translate(-4750.303 -1420.589)"/>
        <path id="Path_2789" data-name="Path 2789" d="M4862.814,1470.647a.95.95,0,0,1-.345,1.2l-13.174,9.547a5.434,5.434,0,0,0-1.983,6.11l4.984,15.5a1.009,1.009,0,0,1-.345,1.2,1.134,1.134,0,0,1-1.378,0l-13.163-9.562a5.427,5.427,0,0,0-6.37,0l-13.174,9.547a.99.99,0,0,1-1.291,0,1.147,1.147,0,0,1-.431-1.206l5.087-15.49a5.564,5.564,0,0,0-1.977-6.112l-13.164-9.562a1.018,1.018,0,0,1-.43-1.2,1.058,1.058,0,0,1,1.033-.775l16.355.01a5.346,5.346,0,0,0,5.08-3.784l5.087-15.491a1.064,1.064,0,0,1,1.033-.774,1.156,1.156,0,0,1,1.119.775l4.983,15.5a5.536,5.536,0,0,0,5.163,3.79l16.268.009C4862.556,1469.872,4862.814,1470.389,4862.814,1470.647Z" transform="translate(-4757.011 -1426.648)" fill="#ffcf48"/>
        <path id="Path_2790" data-name="Path 2790" d="M4754.646,1465.976a2.174,2.174,0,0,1,1.463,2.669,2.119,2.119,0,0,1-2.067,1.549,1.1,1.1,0,0,1-.517-.087l-18.848-5.347a2.047,2.047,0,0,1-1.46-2.583,2.187,2.187,0,0,1,2.669-1.548Z" transform="translate(-4733.105 -1430.2)" fill="#fff"/>
        <path id="Path_2791" data-name="Path 2791" d="M4756.082,1515.4a2.136,2.136,0,0,1-1.465,2.667l-18.767,5.326c-.258,0-.431.086-.6.086a2.2,2.2,0,0,1-2.065-1.636,2.047,2.047,0,0,1,1.464-2.581l18.853-5.326A2.048,2.048,0,0,1,4756.082,1515.4Z" transform="translate(-4733.095 -1447.772)" fill="#fff"/>
        <path id="Path_2792" data-name="Path 2792" d="M4750.245,1491.234a2.109,2.109,0,1,1,0,4.218l-14.976-.008a2.109,2.109,0,1,1,0-4.218Z" transform="translate(-4733.102 -1440.312)" fill="#fff"/>
      </g>
    </g>
  </g>
</svg>
