<svg xmlns="http://www.w3.org/2000/svg" width="97.291" height="102.121" viewBox="0 0 97.291 102.121">
  <g id="Group_1402" data-name="Group 1402" transform="translate(-632.057 -216.999)">
    <g id="Group_1378" data-name="Group 1378" transform="translate(-3162.906 -1174.725)">
      <path id="Path_2797" data-name="Path 2797" d="M3892.255,1416.818a24.849,24.849,0,0,1-4.525,14.419,4.828,4.828,0,0,1,1.446,3.418,4.7,4.7,0,0,1-1.449,3.359,4.778,4.778,0,0,1-3.36,1.388,4.881,4.881,0,0,1-3.358-1.391l-.116-.116a24.825,24.825,0,0,1-13.845,4.279,25.971,25.971,0,0,1-5.965-.815l-42.419,42.315a12.935,12.935,0,0,1-9.211,3.818,13.19,13.19,0,0,1-8.049-2.9l-2.956,2.952a1.98,1.98,0,0,0,1.388,3.36l20.5.046a1.448,1.448,0,1,1,0,2.9l-20.5-.046a4.771,4.771,0,0,1-4.458-3.014,4.712,4.712,0,0,1,1.046-5.328l2.955-2.895a13.024,13.024,0,0,1,.878-17.317l26.541-26.454,8.693-8.683,7.128-7.12a25.018,25.018,0,0,1,3.486-19.922l-.115-.116a4.754,4.754,0,0,1,0-6.719,4.867,4.867,0,0,1,3.417-1.388,4.734,4.734,0,0,1,3.358,1.392,25.045,25.045,0,0,1,39.489,20.583Zm-6.551,12.391a22.311,22.311,0,0,0-30.912-30.946l4.979,4.984Zm.576,5.445a1.885,1.885,0,0,0-.578-1.333l-.811-.87-.752-.753-33.4-33.438a2.038,2.038,0,0,0-1.332-.522,1.854,1.854,0,0,0-1.334,3.184l.869.928,16.614,16.574,17.481,17.559a1.962,1.962,0,0,0,2.664,0A2.116,2.116,0,0,0,3886.28,1434.654Zm-7.414,1.212-30.738-30.772a22.031,22.031,0,0,0-2.559,17.78c0,.058.058.058.058.116a16.351,16.351,0,0,0,.521,1.564c.173.463.347.869.52,1.332a11.347,11.347,0,0,0,.752,1.448,12.7,12.7,0,0,0,.983,1.68c.231.348.463.753.695,1.1a30.116,30.116,0,0,0,2.2,2.55,18.789,18.789,0,0,0,2.6,2.2c.348.232.695.522,1.042.754.58.348,1.158.638,1.679.986.463.232.985.464,1.448.7a13.6,13.6,0,0,0,1.39.522c.521.174.984.406,1.505.58h.116A22,22,0,0,0,3878.866,1435.866Zm-62.23,45.779,41.261-41.273a24.941,24.941,0,0,1-8.627-5.623,25.637,25.637,0,0,1-3.183-3.94c-.173-.232-.29-.521-.463-.811a26.869,26.869,0,0,1-1.852-3.65c-.058-.116-.116-.174-.173-.29l-5.1,5.036,1.215,1.217a7.587,7.587,0,0,1-5.335,12.971,7.778,7.778,0,0,1-5.386-2.2l-1.215-1.217-25.44,25.412a10.136,10.136,0,1,0,14.3,14.371ZM3837.683,1441a4.684,4.684,0,0,0,0-6.661l-1.215-1.159-1.333,1.332-5.332,5.326,1.215,1.159A4.792,4.792,0,0,0,3837.683,1441Z"/>
      <path id="Path_2798" data-name="Path 2798" d="M3955.785,1404.548a22.29,22.29,0,0,1,2.765,28.092l-25.934-25.962-4.978-4.984A22.313,22.313,0,0,1,3955.785,1404.548Z" transform="translate(-72.846 -3.431)" fill="#8dfff9"/>
      <path id="Path_2799" data-name="Path 2799" d="M3949.679,1440.645a1.887,1.887,0,0,1,.578,1.333,2.116,2.116,0,0,1-.58,1.332,1.962,1.962,0,0,1-2.664,0l-17.481-17.559-16.614-16.574-.868-.928a1.853,1.853,0,0,1,1.333-3.184,2.04,2.04,0,0,1,1.332.522l33.4,33.438.752.753Z" transform="translate(-63.977 -7.324)" fill="#25f4ee"/>
      <path id="Path_2800" data-name="Path 2800" d="M3908.72,1421.373l30.738,30.772a22,22,0,0,1-17.782,2.539h-.116c-.521-.174-.984-.406-1.506-.58a13.6,13.6,0,0,1-1.39-.522c-.463-.232-.984-.464-1.448-.7-.521-.348-1.1-.638-1.679-.986-.347-.232-.694-.522-1.042-.754a18.74,18.74,0,0,1-2.605-2.2,30.16,30.16,0,0,1-2.2-2.55c-.232-.348-.463-.753-.695-1.1a12.63,12.63,0,0,1-.984-1.68,11.411,11.411,0,0,1-.752-1.448c-.173-.463-.347-.869-.52-1.332-.174-.522-.4-1.043-.521-1.564,0-.058-.058-.058-.058-.116A22.03,22.03,0,0,1,3908.72,1421.373Z" transform="translate(-60.592 -16.279)" fill="#8dfff9"/>
      <path id="Path_2801" data-name="Path 2801" d="M3863.221,1482.177l-41.26,41.273a10.136,10.136,0,1,1-14.3-14.371l25.44-25.412,1.215,1.217a7.779,7.779,0,0,0,5.386,2.2,7.588,7.588,0,0,0,5.335-12.971l-1.216-1.217,5.1-5.036c.058.116.116.174.174.29a26.853,26.853,0,0,0,1.851,3.65c.174.29.29.579.463.811a25.635,25.635,0,0,0,3.183,3.94A24.946,24.946,0,0,0,3863.221,1482.177ZM3839,1502.029a1.509,1.509,0,0,0,0-2.027,1.469,1.469,0,0,0-2.085,0l-13.85,13.835a1.419,1.419,0,0,0,1.041,2.433,1.27,1.27,0,0,0,.985-.4Zm-3.994-3.941a1.433,1.433,0,1,0-2.026-2.028l-13.85,13.835a1.42,1.42,0,0,0,1.041,2.433,1.272,1.272,0,0,0,.985-.4Zm-3.937-3.94a1.434,1.434,0,1,0-2.027-2.028l-13.85,13.835a1.42,1.42,0,0,0,1.041,2.433,1.272,1.272,0,0,0,.985-.405Z" transform="translate(-5.325 -41.805)" fill="#25f4ee"/>
      <path id="Path_2802" data-name="Path 2802" d="M3880.11,1484.811a4.684,4.684,0,0,1,0,6.66,4.792,4.792,0,0,1-6.661,0l-1.216-1.159,5.332-5.326,1.333-1.332Z" transform="translate(-42.424 -50.474)" fill="#25f4ee"/>
      <path id="Path_2803" data-name="Path 2803" d="M3860.882,1538.605a1.51,1.51,0,0,1,0,2.027l-13.908,13.835a1.271,1.271,0,0,1-.985.405,1.419,1.419,0,0,1-1.041-2.433l13.85-13.835A1.469,1.469,0,0,1,3860.882,1538.605Z" transform="translate(-27.205 -80.408)"/>
      <path id="Path_2804" data-name="Path 2804" d="M3852.095,1529.867a1.4,1.4,0,0,1,0,2.027l-13.85,13.835a1.271,1.271,0,0,1-.985.4,1.42,1.42,0,0,1-1.041-2.433l13.85-13.835A1.4,1.4,0,0,1,3852.095,1529.867Z" transform="translate(-22.412 -75.61)"/>
      <path id="Path_2805" data-name="Path 2805" d="M3843.365,1521.128a1.4,1.4,0,0,1,0,2.027l-13.85,13.835a1.272,1.272,0,0,1-.985.405,1.42,1.42,0,0,1-1.042-2.433l13.85-13.835A1.4,1.4,0,0,1,3843.365,1521.128Z" transform="translate(-17.619 -70.812)"/>
    </g>
  </g>
</svg>
