<svg xmlns="http://www.w3.org/2000/svg" width="152.542" height="83.969" viewBox="0 0 152.542 83.969">
  <g id="Group_1404" data-name="Group 1404" transform="translate(-1143.574 -300)">
    <g id="Group_1374" data-name="Group 1374" transform="translate(-3233.342 -1167.095)">
      <path id="Path_2766" data-name="Path 2766" d="M4593.086,1504.042a2.141,2.141,0,0,1,0,4.282l-16.616-.009a2.141,2.141,0,1,1,0-4.282Z" transform="translate(-65.769 -12.306)" fill="#fff"/>
      <path id="Path_2767" data-name="Path 2767" d="M4585.073,1471.858a2.025,2.025,0,0,1-.858,2.826l-15.678,8.043a2.158,2.158,0,0,1-2.912-.858,2.2,2.2,0,0,1,.944-2.911l15.678-8.043A2.054,2.054,0,0,1,4585.073,1471.858Z" transform="translate(-62.796 -1.195)" fill="#fff"/>
      <path id="Path_2768" data-name="Path 2768" d="M4584.185,1533.657a2.024,2.024,0,0,1,.854,2.828,2.051,2.051,0,0,1-1.884,1.2,1.725,1.725,0,0,1-.942-.257l-15.67-8.059a2.2,2.2,0,0,1-.94-2.913,2.141,2.141,0,0,1,2.913-.855Z" transform="translate(-62.789 -19.399)" fill="#fff"/>
      <path id="Path_2769" data-name="Path 2769" d="M4516.942,1493.865v.085a2.675,2.675,0,0,1-.514,1.37l-46.107,51.45,7.133.011a2.141,2.141,0,0,1,0,4.283l-11.929-.014-11.931-.013a2.143,2.143,0,0,1,0-4.282l7.219.011-46.051-51.5a2.1,2.1,0,0,1-.513-1.37l-.085-.086c0-.085.171-.171.171-.257a1.265,1.265,0,0,1,.172-.77l13.973-24.574a1.764,1.764,0,0,1,.687-.685v-.086h.086a1.492,1.492,0,0,1,1.027-.342l70.576.039a1.72,1.72,0,0,1,1.113.343c.086,0,.086,0,.086.086a1.749,1.749,0,0,1,.684.685l13.948,24.589c.171.257.085.514.17.772C4516.857,1493.693,4516.942,1493.779,4516.942,1493.865Zm-5.822-2.145-10.354-18.249-11.315,18.237Zm-39.768,47.514L4510.09,1496l-22.954-.013Zm13.988-49.069L4497,1471.413l-26.894-.015Zm-19.813,52.492,17.069-46.669-34-.019Zm15.615-50.952-15.577-19.109-15.513,19.091Zm-35.372-1.561,15.341-18.749-26.979-.015Zm14.02,49.084-15.736-43.262-22.954-.013Zm-18.046-47.546-11.381-18.249-10.374,18.238Z" transform="translate(-12.409)"/>
      <path id="Path_2770" data-name="Path 2770" d="M4538.38,1476.657l10.354,18.249-21.669-.012Z" transform="translate(-50.023 -3.186)" fill="#25f4ee"/>
      <path id="Path_2771" data-name="Path 2771" d="M4538.662,1510.438l-38.737,43.232,15.783-43.244Z" transform="translate(-40.981 -14.436)" fill="#8dfff9"/>
      <path id="Path_2772" data-name="Path 2772" d="M4524.947,1473.564l-11.659,18.751-15.235-18.766Z" transform="translate(-40.357 -2.151)" fill="#8dfff9"/>
      <path id="Path_2773" data-name="Path 2773" d="M4499.8,1510.412l-17.07,46.669-16.933-46.688Z" transform="translate(-29.61 -14.425)" fill="#25f4ee"/>
      <path id="Path_2774" data-name="Path 2774" d="M4483.495,1475.344l15.578,19.108-31.091-.017Z" transform="translate(-30.339 -2.748)" fill="#25f4ee"/>
      <path id="Path_2775" data-name="Path 2775" d="M4471.088,1473.534l-15.342,18.749-11.638-18.764Z" transform="translate(-22.386 -2.141)" fill="#8dfff9"/>
      <path id="Path_2776" data-name="Path 2776" d="M4447.52,1510.384l15.736,43.262-38.69-43.274Z" transform="translate(-15.874 -14.418)" fill="#8dfff9"/>
      <path id="Path_2777" data-name="Path 2777" d="M4433.273,1476.6l11.381,18.25-21.755-.012Z" transform="translate(-15.32 -3.166)" fill="#25f4ee"/>
      <path id="Path_2778" data-name="Path 2778" d="M4406.069,1478.865a2.1,2.1,0,0,1,.855,2.912,2.127,2.127,0,0,1-1.885,1.112,1.723,1.723,0,0,1-.942-.257l-15.669-8.059a2.124,2.124,0,0,1-.94-2.827,2.173,2.173,0,0,1,2.912-.941Z" transform="translate(-3.449 -1.158)" fill="#fff"/>
      <path id="Path_2779" data-name="Path 2779" d="M4406.9,1526.371a2.1,2.1,0,0,1-.859,2.911l-15.678,8.042a2.233,2.233,0,0,1-.942.257,2.177,2.177,0,0,1-1.969-1.2,2.125,2.125,0,0,1,.943-2.826l15.678-8.042A2.024,2.024,0,0,1,4406.9,1526.371Z" transform="translate(-3.437 -19.371)" fill="#fff"/>
      <path id="Path_2780" data-name="Path 2780" d="M4395.589,1503.934a2.141,2.141,0,1,1,0,4.282l-16.529-.009a2.141,2.141,0,1,1,0-4.282Z" transform="translate(0 -12.27)" fill="#fff"/>
    </g>
  </g>
</svg>
