<svg xmlns="http://www.w3.org/2000/svg" width="108.874" height="130.745" viewBox="0 0 108.874 130.745">
  <g id="Group_1401" data-name="Group 1401" transform="translate(-464.052 -248)">
    <g id="Group_1373" data-name="Group 1373" transform="translate(-3643.147 -1131.04)">
      <path id="Path_2753" data-name="Path 2753" d="M4269.159,1440.088a1.93,1.93,0,0,1,0,3.861l-22.083-.012a1.93,1.93,0,0,1,0-3.861Z" transform="translate(-55.015 -24.342)" fill="#fff"/>
      <path id="Path_2754" data-name="Path 2754" d="M4263.679,1411.141a1.888,1.888,0,0,1-.772,2.547l-14.984,7.945a1.557,1.557,0,0,1-.85.231,1.932,1.932,0,0,1-.924-3.63l14.907-7.945A2.03,2.03,0,0,1,4263.679,1411.141Z" transform="translate(-55.009 -12.385)" fill="#fff"/>
      <path id="Path_2755" data-name="Path 2755" d="M4262.88,1464.99a1.932,1.932,0,0,1-.928,3.629,2.057,2.057,0,0,1-.927-.232l-14.9-7.961a1.825,1.825,0,0,1-.771-2.549,1.915,1.915,0,0,1,2.548-.848Z" transform="translate(-55.001 -31.025)" fill="#fff"/>
      <path id="Path_2756" data-name="Path 2756" d="M4210.583,1517.486l0,4.479a1.9,1.9,0,0,1-1.931,1.852l-70.961-.039a1.9,1.9,0,0,1-1.93-1.854l0-4.479a8.947,8.947,0,0,1,8.962-8.875l3.706,0,.006-10.578a9.146,9.146,0,0,1,9.194-9.107l3.243,0,.021-36.523a6.777,6.777,0,0,1-2.78.154,5.657,5.657,0,0,1-4.476-5.639l.013-24.323a8.3,8.3,0,0,1,8.343-8.335l22.47.012a8.354,8.354,0,0,1,8.335,8.344l-.014,24.323a5.656,5.656,0,0,1-4.482,5.634,6.7,6.7,0,0,1-2.779-.156l-.021,36.523,3.244,0a9.194,9.194,0,0,1,9.184,9.116l-.006,10.579,3.707,0A8.947,8.947,0,0,1,4210.583,1517.486Zm-3.862,2.546v-2.548a5.141,5.141,0,0,0-5.093-5.1l-5.636,0-45.635-.025-5.637,0a5.092,5.092,0,0,0-5.1,5.094v2.548Zm-12.657-11.434.006-10.579a5.34,5.34,0,0,0-5.326-5.331l-5.173,0-20.771-.011-5.174,0a5.338,5.338,0,0,0-5.33,5.324l-.006,10.579Zm-5.14-61.7.013-24.323a4.481,4.481,0,0,0-4.476-4.481l-22.47-.013a4.482,4.482,0,0,0-4.481,4.476l-.014,24.323a1.8,1.8,0,0,0,1.312,1.854,1.613,1.613,0,0,0,1.467-.385,1.649,1.649,0,0,0,.618-1.312l.009-16.447a1.93,1.93,0,1,1,3.86,0l-.009,16.447-.023,41.851,6.486,0,.019-33.743a2.017,2.017,0,0,1,1.931-1.93,1.961,1.961,0,0,1,1.929,1.932l-.018,33.743,6.563,0,.024-41.851.009-16.447a1.93,1.93,0,1,1,3.861,0l-.009,16.447a1.649,1.649,0,0,0,.617,1.313,1.54,1.54,0,0,0,1.467.387A1.794,1.794,0,0,0,4188.924,1446.9Z" transform="translate(-11.39 -14.031)"/>
      <path id="Path_2757" data-name="Path 2757" d="M4209.285,1582.583v2.548l-67.1-.037v-2.548a5.092,5.092,0,0,1,5.1-5.094l5.637,0,45.634.025,5.637,0A5.141,5.141,0,0,1,4209.285,1582.583Z" transform="translate(-13.952 -79.131)" fill="#ffcf48"/>
      <path id="Path_2758" data-name="Path 2758" d="M4205.037,1550.061l-.006,10.579-41.774-.023.006-10.579a5.338,5.338,0,0,1,5.33-5.324l5.174,0,20.771.011,5.173,0A5.339,5.339,0,0,1,4205.037,1550.061Zm-5.792,1.387a1.962,1.962,0,0,0-1.93-1.932l-26.33-.014a1.961,1.961,0,0,0-1.931,1.93,1.911,1.911,0,0,0,1.929,1.931l26.331.014A1.912,1.912,0,0,0,4199.245,1551.448Z" transform="translate(-22.357 -66.074)" fill="#ffcf48"/>
      <path id="Path_2759" data-name="Path 2759" d="M4203.359,1425.137l-.013,24.323a1.8,1.8,0,0,1-1.313,1.852,1.54,1.54,0,0,1-1.467-.387,1.65,1.65,0,0,1-.617-1.313l.009-16.447a1.93,1.93,0,0,0-3.861,0l-.009,16.447-.023,41.851-6.563,0,.019-33.743a1.961,1.961,0,0,0-1.929-1.932,2.017,2.017,0,0,0-1.931,1.93l-.019,33.743-6.486,0,.022-41.851.009-16.447a1.93,1.93,0,1,0-3.86,0l-.009,16.447a1.649,1.649,0,0,1-.618,1.312,1.614,1.614,0,0,1-1.467.385,1.8,1.8,0,0,1-1.312-1.854l.014-24.323a4.482,4.482,0,0,1,4.481-4.476l22.47.013A4.481,4.481,0,0,1,4203.359,1425.137Z" transform="translate(-25.811 -16.592)" fill="#ff044f"/>
      <path id="Path_2760" data-name="Path 2760" d="M4201.161,1552.693a1.961,1.961,0,0,1,1.93,1.932,1.912,1.912,0,0,1-1.932,1.929l-26.331-.015a1.911,1.911,0,0,1-1.929-1.931,1.961,1.961,0,0,1,1.931-1.93Z" transform="translate(-26.203 -69.25)"/>
      <path id="Path_2761" data-name="Path 2761" d="M4191.635,1379.04a9.652,9.652,0,1,1-9.657,9.646A9.656,9.656,0,0,1,4191.635,1379.04Zm5.786,9.655a5.791,5.791,0,1,0-5.795,5.788A5.8,5.8,0,0,0,4197.421,1388.695Z" transform="translate(-29.823)"/>
      <path id="Path_2762" data-name="Path 2762" d="M4194.194,1385.333a5.83,5.83,0,1,1-5.794,5.866A5.8,5.8,0,0,1,4194.194,1385.333Z" transform="translate(-32.384 -2.51)" fill="#ffcf48"/>
      <path id="Path_2763" data-name="Path 2763" d="M4137.036,1418.169a1.932,1.932,0,0,1-.929,3.629,2.057,2.057,0,0,1-.927-.232l-14.9-7.961a1.825,1.825,0,0,1-.771-2.549,1.917,1.917,0,0,1,2.549-.847Z" transform="translate(-4.811 -12.352)" fill="#fff"/>
      <path id="Path_2764" data-name="Path 2764" d="M4137.783,1457.824a1.888,1.888,0,0,1-.773,2.548l-14.984,7.944a1.559,1.559,0,0,1-.85.232,1.932,1.932,0,0,1-.925-3.63l14.907-7.945A2.03,2.03,0,0,1,4137.783,1457.824Z" transform="translate(-4.798 -31.003)" fill="#fff"/>
      <path id="Path_2765" data-name="Path 2765" d="M4131.292,1440.013a1.93,1.93,0,1,1,0,3.861l-22.161-.012a1.93,1.93,0,1,1,0-3.861Z" transform="translate(0 -24.312)" fill="#fff"/>
    </g>
  </g>
</svg>
