<svg id="Component_5_1" data-name="Component 5 – 1" xmlns="http://www.w3.org/2000/svg" width="335.154" height="232.532" viewBox="0 0 335.154 232.532">
  <g id="Rock_the_tok" data-name="Rock the tok" transform="translate(-125.578 -282.283)">
    <path id="Path_2623" data-name="Path 2623" d="M373.613,366.386V302.034l.1-.019V284.723l-34.085,63.848" transform="translate(-127.498 -1.454)" fill="#fe2c55"/>
    <path id="Path_2624" data-name="Path 2624" d="M637.778,655.388V719.74l-.1.019V737.05L671.76,673.2" transform="translate(-305.024 -222.235)" fill="#25f4ee"/>
    <path id="Path_2625" data-name="Path 2625" d="M493.7,497.109,180.927,553.2V438.443L493.7,382.356Z" transform="translate(-32.968 -59.607)" fill="#25f4ee"/>
    <path id="Path_2626" data-name="Path 2626" d="M438.35,451.283,125.578,507.371V392.213L438.35,336.126Z" transform="translate(0 -32.071)" fill="#fe2c55"/>
    <path id="Path_2627" data-name="Path 2627" d="M471.319,484.731V392.281L180.927,444.355v92.451Z" transform="translate(-32.968 -65.519)" fill="#fff"/>
    <g id="Group_1233" data-name="Group 1233" transform="translate(161.336 355.297)">
      <g id="Group_1232" data-name="Group 1232" transform="translate(0)">
        <g id="Group_1230" data-name="Group 1230" transform="translate(137.972)">
          <path id="Path_2628" data-name="Path 2628" d="M555.218,497.715l40.211-7.228-3.6,11.892-11.085,1.988.017,41.57-12.725,2.287-.017-41.57-12.784,2.321Z" transform="translate(-555.218 -479.311)"/>
          <path id="Path_2629" data-name="Path 2629" d="M775.269,465.11l12.587-2.262.01,24.594,12.469-14.482,15.026-2.7-15.773,18.147,17.684,22.116L803.4,513.016,791.6,497.6l-3.73,4.3.006,13.913-12.587,2.262Z" transform="translate(-686.289 -462.848)"/>
          <path id="Path_2630" data-name="Path 2630" d="M645.533,531.54c0-11.337,8.745-22.2,19.861-25.056-.558.057-1.412.182-1.981.284-11.906,2.14-21.555,13.526-21.55,25.432s9.661,19.823,21.568,17.683c.569-.1,1.423-.285,1.981-.428C654.295,550.59,645.537,542.877,645.533,531.54Z" transform="translate(-606.827 -488.839)" fill="#25f4ee"/>
          <path id="Path_2631" data-name="Path 2631" d="M709,503.656c-.574.1-1.433.287-2,.431,11.11-1.127,19.859,6.584,19.864,17.916s-8.738,22.187-19.847,25.053c.562-.057,1.421-.182,2-.286,11.906-2.14,21.555-13.526,21.55-25.432S720.9,501.516,709,503.656Z" transform="translate(-645.626 -486.947)" fill="#fe2c55"/>
          <path id="Path_2632" data-name="Path 2632" d="M671.766,505.171c-11.906,2.14-21.555,13.526-21.55,25.432s9.661,19.823,21.568,17.682,21.555-13.526,21.55-25.432S683.673,503.031,671.766,505.171Zm.013,32.037c-5.788,1.04-10.482-2.808-10.485-8.6a13.1,13.1,0,0,1,10.476-12.363c5.788-1.04,10.482,2.808,10.485,8.6A13.1,13.1,0,0,1,671.779,537.208Z" transform="translate(-611.802 -487.849)"/>
        </g>
        <g id="Group_1231" data-name="Group 1231" transform="translate(0 30.354)">
          <path id="Path_2633" data-name="Path 2633" d="M214.013,569.2l0-10.139,39.947-7.18,0,10.139-14.289,2.568.018,42.784-11.369,2.044L228.3,566.63Z" transform="translate(-214.009 -546.232)"/>
          <path id="Path_2634" data-name="Path 2634" d="M340.97,593.294l-10.678,1.919-.023-55.381,10.678-1.919.01,25.117a10.279,10.279,0,0,1,4.07-5.417,14.689,14.689,0,0,1,5.991-2.767q6.99-1.256,10.68,2.536t3.692,12.011l.008,19.51-10.678,1.919-.008-19.126a5.911,5.911,0,0,0-1.961-4.794,5.4,5.4,0,0,0-4.649-1.161,8.836,8.836,0,0,0-5.146,2.768,8.317,8.317,0,0,0-2,5.813Z" transform="translate(-283.258 -537.913)"/>
          <path id="Path_2635" data-name="Path 2635" d="M470.094,588.527q-4.99,8.194-16.36,10.238-7.912,1.422-13.369-2.821-5.38-4.333-5.383-12.629a21.1,21.1,0,0,1,5.372-14.408,22.652,22.652,0,0,1,13.364-7.549q7.835-1.408,13.062,2.953,5.3,4.27,5.306,12.643,0,.844-.152,3.33l-26.273,4.722a4.7,4.7,0,0,0,2.921,3.892,10.025,10.025,0,0,0,5.915.511,11.588,11.588,0,0,0,7.835-4.788Zm-8.763-13.021a5.048,5.048,0,0,0-2.652-4.055,7.514,7.514,0,0,0-4.879-.774,10.074,10.074,0,0,0-4.992,2.51,9,9,0,0,0-2.994,5.109Z" transform="translate(-345.629 -551.673)"/>
        </g>
      </g>
    </g>
    <g id="Group_1234" data-name="Group 1234" transform="translate(246.1 282.283)">
      <path id="Path_2636" data-name="Path 2636" d="M458.537,396.562,446.5,398.726,435.957,384.34l-2.257.406.006,16.28-10.055,1.807-.019-47.129,19.29-3.467q7.593-1.365,11.562,2.505a13.113,13.113,0,0,1,4.109,10.138,18.19,18.19,0,0,1-11.759,17.095ZM433.691,362.72l.006,13.27,8.482-1.525a6.621,6.621,0,0,0,4.274-2.752,8.2,8.2,0,0,0,1.674-4.953,6.213,6.213,0,0,0-1.575-4.335,4.185,4.185,0,0,0-4.1-1.28Z" transform="translate(-423.632 -323.738)" fill="#fff"/>
      <path id="Path_2637" data-name="Path 2637" d="M531.549,340.755a28.089,28.089,0,0,1,16.961-10.163q10.055-1.807,16.967,4.065,6.98,5.86,6.984,15.846a27.853,27.853,0,0,1-6.97,18.355,28.2,28.2,0,0,1-16.961,10.094q-9.987,1.795-16.967-4-6.912-5.873-6.916-15.859A28.138,28.138,0,0,1,531.549,340.755Zm26.817,2.158a11.207,11.207,0,0,0-9.851-2.4,16.029,16.029,0,0,0-9.849,5.943,16.828,16.828,0,0,0-4.032,10.849,11.845,11.845,0,0,0,4.04,9.4q3.969,3.391,9.852,2.334a16.03,16.03,0,0,0,9.849-5.943,16.624,16.624,0,0,0,4.1-10.793A11.592,11.592,0,0,0,558.366,342.913Z" transform="translate(-483.8 -310.805)" fill="#fff"/>
      <path id="Path_2638" data-name="Path 2638" d="M700.275,341.406A29.026,29.026,0,0,1,680.442,355.3q-10.055,1.808-16.9-4.008-6.775-5.829-6.779-15.884a28.465,28.465,0,0,1,6.765-18.386,27.761,27.761,0,0,1,16.893-10.082,22.584,22.584,0,0,1,11.288.639,17.068,17.068,0,0,1,8.348,5.819l-8.138,7.072q-4.175-5.406-11.494-4.091a15.5,15.5,0,0,0-9.711,6.055,17.549,17.549,0,0,0-3.9,11.167,12.662,12.662,0,0,0,3.9,9.765,10.834,10.834,0,0,0,9.716,2.495,15.592,15.592,0,0,0,6.634-2.936,19.86,19.86,0,0,0,5.128-5.676Z" transform="translate(-562.494 -296.718)" fill="#fff"/>
      <path id="Path_2639" data-name="Path 2639" d="M796.947,308.817l22.1,19.832-13,2.336-14.167-13.461.007,16.006-10.124,1.82-.019-47.129,10.124-1.82.006,15.459L803.026,284.4l11.765-2.115Z" transform="translate(-636.942 -282.283)" fill="#fff"/>
    </g>
  </g>
</svg>
