<svg xmlns="http://www.w3.org/2000/svg" width="426.193" height="947.696" viewBox="0 0 426.193 947.696">
  <g id="Group_1399" data-name="Group 1399" transform="translate(-4790.692 7764)">
    <g id="Group_1341" data-name="Group 1341" transform="translate(4703 -7764)">
      <rect id="Rectangle_714" data-name="Rectangle 714" width="35.002" height="35.002" transform="translate(418.297 379.511)" fill="#25f4ee"/>
      <rect id="Rectangle_715" data-name="Rectangle 715" width="35.002" height="35.002" transform="translate(390.069)" fill="#25f4ee"/>
      <g id="Group_1338" data-name="Group 1338" transform="translate(241.646 213.444)">
        <rect id="Rectangle_716" data-name="Rectangle 716" width="62.238" height="14.923" transform="translate(44.924 53.866) rotate(-136.204)" fill="#25f4ee"/>
        <rect id="Rectangle_717" data-name="Rectangle 717" width="62.238" height="14.923" transform="matrix(-0.721, 0.693, -0.693, -0.721, 55.233, 10.759)" fill="#fe2c55"/>
      </g>
      <rect id="Rectangle_718" data-name="Rectangle 718" width="27.229" height="27.229" transform="translate(203.445 920.467)" fill="#fff"/>
      <g id="Rectangle_719" data-name="Rectangle 719" transform="translate(159.442 559.301)" fill="none" stroke="#fff" stroke-miterlimit="10" stroke-width="9">
        <rect width="50.747" height="50.747" stroke="none"/>
        <rect x="4.5" y="4.5" width="41.747" height="41.747" fill="none"/>
      </g>
      <path id="Path_2749" data-name="Path 2749" d="M2592.832-974.417l29.879-51.752,51.752,29.879" transform="translate(-2482.832 1381.677)" fill="none" stroke="#25f4ee" stroke-miterlimit="10" stroke-width="13"/>
      <g id="Group_1339" data-name="Group 1339" transform="translate(364.203 590.092)">
        <path id="Path_2750" data-name="Path 2750" d="M2262.874-678.676l47.386-45.461-45.391-47.448-9.3,8.919,36.486,38.139-38.09,36.541Z" transform="translate(-2253.968 771.584)" fill="#fe2c55"/>
      </g>
      <g id="Rectangle_720" data-name="Rectangle 720" transform="translate(100.104 7.478)" fill="none" stroke="#fff" stroke-miterlimit="10" stroke-width="13">
        <rect width="81.083" height="81.083" stroke="none"/>
        <rect x="6.5" y="6.5" width="68.083" height="68.083" fill="none"/>
      </g>
      <g id="Rectangle_721" data-name="Rectangle 721" transform="translate(368.356 820.796)" fill="none" stroke="#25f4ee" stroke-miterlimit="10" stroke-width="10">
        <rect width="55.886" height="55.886" stroke="none"/>
        <rect x="5" y="5" width="45.886" height="45.886" fill="none"/>
      </g>
      <rect id="Rectangle_722" data-name="Rectangle 722" width="35.002" height="35.002" transform="translate(87.693 764.559)" fill="#25f4ee"/>
      <rect id="Rectangle_723" data-name="Rectangle 723" width="63.815" height="13.438" transform="translate(513.886 150.546) rotate(153.077)" fill="#fff"/>
    </g>
  </g>
</svg>
